# xmcd CD database file
#
# Track frame offsets:
#	150
#	12727
#	35445
#	56779
#	81095
#	99675
#	121590
#	144418
#	167199
#	188551
#	211641
#	225887
#	249198
#	265815
#	291315
#	306093
#	327891
#
# Disc length: 4731 seconds
#
# Revision: 2
# Processed by: cddbd v1.5.1PL0 Copyright (c) Steve Scherf et al.
# Submitted via: CDex 1.51
#
DISCID=e0127911
DTITLE=Twelve Girls Band - Eastern Energy
DYEAR=2004
DGENRE=New Age
TTITLE0=Miracle
TTITLE1=Clocks (Coldplay)
TTITLE2=Liu San Jie
TTITLE3=Earthly Stars (Unsung Heroes)
TTITLE4=Freedom
TTITLE5=Shangri-la
TTITLE6=Reel Around the Sun (Riverdance)
TTITLE7=A Girl's Dream
TTITLE8=Forbidden City
TTITLE9=The Great Valley
TTITLE10=Alamuhan
TTITLE11=Mountains and Rivers
TTITLE12=Only Time (Enya)
TTITLE13=New Classicism
TTITLE14=Victory
TTITLE15=Only Flower in the World
TTITLE16=Sd
EXTD=YEAR: 2004
EXTT0=
EXTT1=
EXTT2=
EXTT3=
EXTT4=
EXTT5=
EXTT6=
EXTT7=
EXTT8=
EXTT9=
EXTT10=
EXTT11=
EXTT12=
EXTT13=
EXTT14=
EXTT15=
EXTT16=
PLAYORDER=
